<svg xmlns="http://www.w3.org/2000/svg" xml:space="preserve" viewBox="0 0 629.921 116.607" >
    <defs>
        <mask id="mask" x="0" y="0" width="100%" height="100%" >
            <rect x="0" y="0" width="100%" height="100%" />
            <text x="72" y="50">codelabs</text>
        </mask>
        <clipPath id="codelabsLogo" clipPathUnits="objectBoundingBox">
            <path d="M0 87.455h472.441V0H0Z"/>
        </clipPath>
    </defs>
    <g transform="matrix(1.33333 0 0 -1.33333 0 116.607)">
        <path d="M0 0c0-5.125 1.456-9.3 4.368-12.521 2.912-3.224 6.64-4.834 11.182-4.834 4.543 0 8.271 1.61 11.183 4.834C29.645-9.3 31.101-5.125 31.101 0c0 5.125-1.456 9.319-4.368 12.581-2.912 3.261-6.64 4.892-11.183 4.892-4.542 0-8.27-1.631-11.182-4.892C1.456 9.319 0 5.125 0 0m48.69 0c0-9.085-3.145-16.735-9.435-22.947-6.29-6.213-14.193-9.319-23.705-9.319-9.513 0-17.414 3.106-23.704 9.319-6.29 6.212-9.435 13.862-9.435 22.947 0 9.086 3.145 16.754 9.435 23.006 6.29 6.25 14.191 9.377 23.704 9.377 9.512 0 17.415-3.127 23.705-9.377C45.545 16.754 48.69 9.086 48.69 0"
              style="fill:#000;fill-opacity:1;fill-rule:nonzero;stroke:none"
              transform="translate(72.235 32.266)"
        />
        <path d="M0 0c0-5.049 1.514-9.184 4.542-12.405 3.029-3.224 6.562-4.834 10.601-4.834 4.037 0 7.473 1.61 10.309 4.834 2.834 3.221 4.251 7.377 4.251 12.463 0 5.086-1.417 9.319-4.251 12.697-2.836 3.378-6.31 5.067-10.426 5.067-4.117 0-7.65-1.709-10.6-5.125C1.474 9.279 0 5.047 0 0m10.825-32.089c-7.442 0-14.083 3.147-19.928 9.44-5.843 6.292-8.765 14.099-8.765 23.421s2.843 16.954 8.532 22.897c5.687 5.943 12.349 8.914 19.986 8.914 7.635 0 13.868-2.68 18.7-8.04v30.763h17.531v-86.462H29.35v8.273c-4.909-6.138-11.085-9.206-18.525-9.206"
              style="fill:#000;fill-opacity:1;fill-rule:nonzero;stroke:none"
              transform="translate(144.873 32.15)"
        />
        <path d="M0 0c-2.408 2.019-5.34 3.029-8.795 3.029-3.456 0-6.621-1.049-9.493-3.145-2.874-2.097-4.543-4.933-5.009-8.504h27.49C3.804-4.892 2.406-2.02 0 0m16.743-37.245C9.676-43.925 1.386-47.263-8.126-47.263c-9.514 0-17.376 2.931-23.588 8.794-6.214 5.863-9.318 13.726-9.318 23.588 0 9.861 3.163 17.706 9.493 23.53 6.328 5.825 13.803 8.737 22.423 8.737 8.62 0 15.938-2.603 21.957-7.805 6.017-5.203 9.027-12.347 9.027-21.433v-9.319h-45.661c.542-3.418 2.329-6.213 5.358-8.387 3.029-2.174 6.445-3.261 10.25-3.261 6.134 0 11.183 2.056 15.144 6.173z"
              style="fill:#000;fill-opacity:1;fill-rule:nonzero;stroke:none"
              transform="translate(239.215 47.266)"
        />
        <path d="M284.99.993h-17.531v86.462h17.531Z"
              style="fill:#000;fill-opacity:1;fill-rule:nonzero;stroke:none"
        />
        <path d="M0 0v3.028h-10.95c-6.988 0-10.484-2.174-10.484-6.522 0-2.253.834-3.981 2.505-5.184 1.669-1.205 4.057-1.805 7.163-1.805s5.843.95 8.213 2.853C-1.186-5.728 0-3.185 0 0m17.73-23.866H1.195v7.586c-4.513-5.681-10.094-8.52-16.747-8.52-6.652 0-12.235 1.926-16.747 5.778-4.513 3.85-6.768 8.985-6.768 15.404 0 6.419 2.334 11.222 7.002 14.412 4.668 3.19 11.046 4.786 19.139 4.786H.199v.35c0 6.69-3.547 10.036-10.636 10.036-3.039 0-6.252-.604-9.642-1.809-3.39-1.207-6.253-2.704-8.59-4.493l-7.831 11.32c8.258 5.99 17.687 8.986 28.284 8.986 7.635 0 13.868-1.907 18.7-5.718 4.83-3.813 7.246-9.843 7.246-18.089z"
              style="fill:#000;fill-opacity:1;fill-rule:nonzero;stroke:none"
              transform="translate(330.213 24.86)"
        />
        <path d="M0 0c0-5.086 1.415-9.242 4.251-12.463 2.834-3.224 6.27-4.834 10.309-4.834 4.037 0 7.572 1.61 10.6 4.834 3.028 3.221 4.543 7.356 4.543 12.405 0 5.047-1.476 9.279-4.427 12.697-2.952 3.416-6.484 5.125-10.599 5.125-4.117 0-7.592-1.689-10.426-5.067C1.415 9.319 0 5.085 0 0m18.892 32.525c7.635 0 14.296-2.971 19.985-8.914 5.686-5.943 8.532-13.575 8.532-22.897s-2.922-17.13-8.765-23.422C32.8-29 26.156-32.147 18.716-32.147c-7.442 0-13.615 3.068-18.525 9.206v-8.273H-17.34v86.462H.191V24.485c4.83 5.36 11.064 8.04 18.701 8.04"
              style="fill:#000;fill-opacity:1;fill-rule:nonzero;stroke:none"
              transform="translate(371.46 32.208)"
        />
        <path d="M0 0c0-6.173-2.271-11.124-6.814-14.852-4.543-3.727-10.31-5.59-17.298-5.59-4.659 0-9.514.835-14.561 2.504-5.049 1.669-9.592 4.135-13.629 7.397L-44.613.408c6.522-5.049 13.471-7.571 20.85-7.571 2.251 0 4.036.445 5.359 1.34 1.319.891 1.979 2.076 1.979 3.552 0 1.474-.913 2.833-2.737 4.077-1.825 1.241-4.466 2.406-7.921 3.495-3.456 1.086-6.097 2.018-7.921 2.796-1.825.774-3.902 1.901-6.231 3.377-4.738 2.95-7.106 7.318-7.106 13.105 0 5.784 2.329 10.502 6.988 14.152 4.661 3.649 10.677 5.475 18.056 5.475 7.377 0 14.753-2.486 22.132-7.455l-6.523-11.648c-5.437 3.727-10.853 5.591-16.249 5.591-5.399 0-8.096-1.476-8.096-4.426 0-1.631.853-2.913 2.562-3.845 1.707-.931 4.543-2.02 8.503-3.261 3.961-1.243 6.775-2.195 8.446-2.854 1.668-.661 3.668-1.689 5.999-3.087C-2.176 10.58 0 6.174 0 0"
              style="fill:#000;fill-opacity:1;fill-rule:nonzero;stroke:none"
              transform="translate(472.442 20.442)"
        />
        <path d="M0 0c-4.305-4.736-9.082-7.11-14.334-7.11-4.426 0-8.29 1.474-11.59 4.426-3.302 2.951-4.951 7.085-4.951 12.406 0 5.318 1.649 9.473 4.951 12.464 3.3 2.988 7.24 4.484 11.823 4.484 2.872 0 5.766-.661 8.678-1.981a20.752 20.752 0 0 0 5.808-3.933c1.412 4.908 3.825 9.364 7.232 13.373a34.4 34.4 0 0 1-8.73 5.121c-4.621 1.864-9.184 2.796-13.687 2.796-9.009 0-16.793-3.01-23.355-9.027-6.563-6.019-9.843-13.824-9.843-23.414 0-9.591 3.242-17.356 9.727-23.296 6.483-5.941 14.424-8.912 23.821-8.912 7.649 0 14.861 2.785 21.637 8.344C3.683-10.013 1.286-5.261 0 0"
              style="fill:#000;fill-opacity:1;fill-rule:nonzero;stroke:none"
              transform="translate(47.998 22.603)"
        />
    </g>
</svg>